<?xml version="1.0" encoding="utf-8"?>
<!-- Generator: Adobe Illustrator 24.0.2, SVG Export Plug-In . SVG Version: 6.00 Build 0)  -->
<svg version="1.1" id="Layer_1" xmlns="http://www.w3.org/2000/svg" xmlns:xlink="http://www.w3.org/1999/xlink" x="0px" y="0px"
	 viewBox="0 0 492 492" style="enable-background:new 0 0 492 492;" xml:space="preserve">
<g>
	<g>
		<path d="M293.4,245.9L109.3,430c-5.1,5.1-7.9,11.8-7.9,19c0,7.2,2.8,14,7.9,19l16.1,16.1c5.1,5.1,11.8,7.9,19,7.9s14-2.8,19-7.9
			L382.7,265c5.1-5.1,7.9-11.9,7.8-19.1c0-7.2-2.8-14-7.8-19.1L163.7,7.9c-5.1-5.1-11.8-7.9-19-7.9c-7.2,0-14,2.8-19,7.9L109.5,24
			C99,34.5,99,51.6,109.5,62L293.4,245.9z"/>
	</g>
</g>
</svg>
